<svg width="36" height="28" viewBox="0 0 36 28" fill="none" xmlns="http://www.w3.org/2000/svg">
<path d="M10.2 13.66C10.2 14.6843 10.4017 15.6986 10.7937 16.6449C11.1857 17.5913 11.7602 18.4511 12.4845 19.1754C13.2088 19.8997 14.0687 20.4743 15.015 20.8663C15.9614 21.2582 16.9756 21.46 18 21.46C19.0243 21.46 20.0385 21.2582 20.9849 20.8663C21.9312 20.4743 22.7911 19.8997 23.5154 19.1754C24.2397 18.4511 24.8142 17.5913 25.2062 16.6449C25.5982 15.6986 25.8 14.6843 25.8 13.66C25.8 12.6357 25.5982 11.6214 25.2062 10.6751C24.8142 9.72873 24.2397 8.86886 23.5154 8.14457C22.7911 7.42027 21.9312 6.84573 20.9849 6.45374C20.0385 6.06175 19.0243 5.86 18 5.86C16.9756 5.86 15.9614 6.06175 15.015 6.45374C14.0687 6.84573 13.2088 7.42027 12.4845 8.14457C11.7602 8.86886 11.1857 9.72873 10.7937 10.6751C10.4017 11.6214 10.2 12.6357 10.2 13.66Z" stroke="#5A6A85" stroke-width="1.29981" stroke-linecap="round" stroke-linejoin="round"/>
<path d="M15.4 11.06H15.4086" stroke="#5A6A85" stroke-width="1.29981" stroke-linecap="round" stroke-linejoin="round"/>
<path d="M20.6 11.06H20.6086" stroke="#5A6A85" stroke-width="1.29981" stroke-linecap="round" stroke-linejoin="round"/>
<path d="M14.5333 14.5267C14.5333 15.4461 14.8986 16.3278 15.5487 16.978C16.1988 17.6281 17.0806 17.9933 18 17.9933C18.9194 17.9933 19.8012 17.6281 20.4513 16.978C21.1014 16.3278 21.4667 15.4461 21.4667 14.5267H14.5333Z" stroke="#5A6A85" stroke-width="1.29981" stroke-linecap="round" stroke-linejoin="round"/>
</svg>
