<svg width="38" height="26" viewBox="0 0 38 26" fill="none" xmlns="http://www.w3.org/2000/svg">
<g style="mix-blend-mode:multiply">
<path d="M15.1186 26C12.0715 26 9.54911 23.7425 10.113 21.0288C10.4666 19.3274 11.0016 17.6594 11.7127 16.0502C13.1067 12.8958 15.1497 10.0295 17.7254 7.61517C20.3011 5.20085 23.3588 3.2857 26.724 1.97908C28.3855 1.33401 30.1057 0.843491 31.8601 0.512149C34.8432 -0.0512291 37.3386 2.23853 37.3386 4.99995V21C37.3386 23.7614 34.8684 26 31.8214 26H15.1186Z" fill="#3DD9EB"/>
<path d="M22.22 26C25.2671 26 27.7895 23.7425 27.2256 21.0288C26.8721 19.3274 26.337 17.6594 25.6259 16.0502C24.2319 12.8958 22.1889 10.0295 19.6132 7.61517C17.0376 5.20085 13.9798 3.2857 10.6146 1.97908C8.95319 1.33401 7.23289 0.843491 5.4785 0.512149C2.49549 -0.0512291 0 2.23853 0 4.99995V21C0 23.7614 2.47016 26 5.51724 26H22.22Z" fill="#615DFF"/>
</g>
</svg>
