<svg width="36" height="28" viewBox="0 0 36 28" fill="none" xmlns="http://www.w3.org/2000/svg">
<path d="M14.5333 12.2367C14.5333 11.777 14.7159 11.3361 15.041 11.0111C15.3661 10.686 15.8069 10.5034 16.2667 10.5034H23.2C23.6597 10.5034 24.1006 10.686 24.4256 11.0111C24.7507 11.3361 24.9333 11.777 24.9333 12.2367V19.1701C24.9333 19.6298 24.7507 20.0706 24.4256 20.3957C24.1006 20.7208 23.6597 20.9034 23.2 20.9034H16.2667C15.8069 20.9034 15.3661 20.7208 15.041 20.3957C14.7159 20.0706 14.5333 19.6298 14.5333 19.1701V12.2367Z" stroke="#5A6A85" stroke-width="1.29981" stroke-linecap="round" stroke-linejoin="round"/>
<path d="M21.4666 10.5034V8.77008C21.4666 8.31037 21.284 7.86949 20.959 7.54442C20.6339 7.21936 20.193 7.03674 19.7333 7.03674H12.8C12.3403 7.03674 11.8994 7.21936 11.5743 7.54442C11.2493 7.86949 11.0667 8.31037 11.0667 8.77008V15.7034C11.0667 16.1631 11.2493 16.604 11.5743 16.9291C11.8994 17.2541 12.3403 17.4367 12.8 17.4367H14.5333" stroke="#5A6A85" stroke-width="1.29981" stroke-linecap="round" stroke-linejoin="round"/>
</svg>
