<svg width="36" height="28" viewBox="0 0 36 28" fill="none" xmlns="http://www.w3.org/2000/svg">
<path d="M14.5333 9.32668C14.5333 10.2461 14.8986 11.1279 15.5487 11.778C16.1988 12.4281 17.0806 12.7933 18 12.7933C18.9194 12.7933 19.8012 12.4281 20.4513 11.778C21.1014 11.1279 21.4667 10.2461 21.4667 9.32668C21.4667 8.40727 21.1014 7.5255 20.4513 6.87538C19.8012 6.22525 18.9194 5.86002 18 5.86002C17.0806 5.86002 16.1988 6.22525 15.5487 6.87538C14.8986 7.5255 14.5333 8.40727 14.5333 9.32668Z" stroke="#5A6A85" stroke-width="1.29981" stroke-linecap="round" stroke-linejoin="round"/>
<path d="M21.4666 19.7267H26.6658" stroke="#5A6A85" stroke-width="1.29981" stroke-linecap="round" stroke-linejoin="round"/>
<path d="M24.0667 17.1267V22.3259" stroke="#5A6A85" stroke-width="1.29981" stroke-linecap="round" stroke-linejoin="round"/>
<path d="M12.8 21.46V19.7267C12.8 18.8073 13.1652 17.9255 13.8154 17.2754C14.4655 16.6252 15.3472 16.26 16.2667 16.26H19.7333" stroke="#5A6A85" stroke-width="1.29981" stroke-linecap="round" stroke-linejoin="round"/>
</svg>
