<svg width="36" height="28" viewBox="0 0 36 28" fill="none" xmlns="http://www.w3.org/2000/svg">
<path d="M10.2 14.0098C10.2 15.0342 10.4017 16.0484 10.7937 16.9948C11.1857 17.9411 11.7602 18.801 12.4845 19.5253C13.2088 20.2496 14.0687 20.8241 15.015 21.2161C15.9614 21.6081 16.9756 21.8098 18 21.8098C19.0243 21.8098 20.0385 21.6081 20.9849 21.2161C21.9312 20.8241 22.7911 20.2496 23.5154 19.5253C24.2397 18.801 24.8142 17.9411 25.2062 16.9948C25.5982 16.0484 25.8 15.0342 25.8 14.0098C25.8 12.9855 25.5982 11.9713 25.2062 11.0249C24.8142 10.0786 24.2397 9.21871 23.5154 8.49441C22.7911 7.77011 21.9312 7.19557 20.9849 6.80358C20.0385 6.4116 19.0243 6.20984 18 6.20984C16.9756 6.20984 15.9614 6.4116 15.015 6.80358C14.0687 7.19557 13.2088 7.77011 12.4845 8.49441C11.7602 9.21871 11.1857 10.0786 10.7937 11.0249C10.4017 11.9713 10.2 12.9855 10.2 14.0098Z" stroke="#5A6A85" stroke-width="1.29981" stroke-linecap="round" stroke-linejoin="round"/>
<path d="M10.72 16.6098H19.8633" stroke="#5A6A85" stroke-width="1.29981" stroke-linecap="round" stroke-linejoin="round"/>
<path d="M13.2775 7.88944L16.1029 16.5856" stroke="#5A6A85" stroke-width="1.29981" stroke-linecap="round" stroke-linejoin="round"/>
<path d="M22.3611 7.62771L14.9641 13.0019" stroke="#5A6A85" stroke-width="1.29981" stroke-linecap="round" stroke-linejoin="round"/>
<path d="M25.4178 16.1852L18.0208 10.811" stroke="#5A6A85" stroke-width="1.29981" stroke-linecap="round" stroke-linejoin="round"/>
<path d="M18.2227 21.737L21.0489 13.0409" stroke="#5A6A85" stroke-width="1.29981" stroke-linecap="round" stroke-linejoin="round"/>
</svg>
